<svg width="40" height="40" viewBox="0 0 40 40" fill="none" xmlns="http://www.w3.org/2000/svg">
<g opacity="0.3">
<path opacity="0.3" d="M26.285 8.20667C25.3737 8.20578 24.4999 7.84348 23.8553 7.19922C23.2107 6.55496 22.848 5.68134 22.8467 4.77V0H7.48499C6.29549 0 5.15472 0.472523 4.31362 1.31362C3.47252 2.15472 3 3.2955 3 4.485V31.5217C3.00177 32.71 3.47507 33.8491 4.31598 34.6887C5.15689 35.5284 6.29664 36 7.48499 36H25.9183C27.1078 36 28.2486 35.5275 29.0897 34.6864C29.9308 33.8453 30.4033 32.7045 30.4033 31.515V8.20667H26.285Z" fill="#5B5B5B"/>
</g>
<path d="M30.4033 8.20667H26.285C25.3736 8.20578 24.4998 7.84348 23.8553 7.19922C23.2107 6.55496 22.848 5.68134 22.8466 4.77V0L30.4033 8.20667Z" fill="#5B5B5B"/>
<path d="M33.6566 28.4333H12.8166C11.3384 28.4333 10.14 29.6317 10.14 31.11V37.3233C10.14 38.8016 11.3384 40 12.8166 40H33.6566C35.1349 40 36.3333 38.8016 36.3333 37.3233V31.11C36.3333 29.6317 35.1349 28.4333 33.6566 28.4333Z" fill="#5B5B5B"/>
<path d="M14.185 25.69H13.8167C12.9667 25.69 12.2894 25.4405 11.785 24.9416C11.2805 24.4427 11.0289 23.7689 11.03 22.92V20.2C11.03 19.16 10.6161 18.64 9.78833 18.64V17.3633C10.6161 17.3633 11.03 16.8433 11.03 15.8033V13.0833C11.03 12.2333 11.2817 11.5588 11.785 11.06C12.2883 10.5611 12.9655 10.3122 13.8167 10.3133H14.185V11.59H13.9333C12.9333 11.59 12.4333 12.155 12.4333 13.285V16.0716C12.4211 17.0716 12.0322 17.7039 11.2667 17.9683V18.035C12.0167 18.2816 12.4056 18.8972 12.4333 19.8816V22.715C12.4333 23.845 12.9333 24.41 13.9333 24.41H14.185V25.69Z" fill="#5B5B5B"/>
<path d="M19.2166 25.69V24.4133H19.4683C20.4683 24.4133 20.9683 23.8483 20.9683 22.7183V19.885C20.9905 18.8994 21.3794 18.2839 22.135 18.0383V17.9716C21.3728 17.7028 20.9839 17.0705 20.9683 16.075V13.2883C20.9683 12.1583 20.4683 11.5933 19.4683 11.5933H19.2166V10.3167H19.5867C20.4367 10.3167 21.1133 10.5655 21.6166 11.0633C22.12 11.5611 22.3722 12.2355 22.3733 13.0866V15.8067C22.3733 16.8467 22.7872 17.3667 23.615 17.3667V18.6433C22.7872 18.6433 22.3733 19.1633 22.3733 20.2033V22.9233C22.3733 23.7733 22.1211 24.4472 21.6166 24.945C21.1122 25.4428 20.4355 25.6922 19.5867 25.6933L19.2166 25.69Z" fill="#5B5B5B"/>
<path d="M16.5633 14.3617C17.1736 14.3617 17.6683 13.867 17.6683 13.2567C17.6683 12.6464 17.1736 12.1517 16.5633 12.1517C15.9531 12.1517 15.4583 12.6464 15.4583 13.2567C15.4583 13.867 15.9531 14.3617 16.5633 14.3617Z" fill="#5B5B5B"/>
<path d="M16.5633 19.1067C17.1736 19.1067 17.6683 18.612 17.6683 18.0017C17.6683 17.3914 17.1736 16.8967 16.5633 16.8967C15.9531 16.8967 15.4583 17.3914 15.4583 18.0017C15.4583 18.612 15.9531 19.1067 16.5633 19.1067Z" fill="#5B5B5B"/>
<path d="M16.5633 23.8517C17.1736 23.8517 17.6683 23.3569 17.6683 22.7466C17.6683 22.1364 17.1736 21.6417 16.5633 21.6417C15.9531 21.6417 15.4583 22.1364 15.4583 22.7466C15.4583 23.3569 15.9531 23.8517 16.5633 23.8517Z" fill="#5B5B5B"/>
<path d="M11.8016 37V32.255H12.6141V34.1725H13.1796L14.0701 32.255H14.9541L13.8946 34.53L15.0061 37H14.1026L13.1666 34.9135H12.6141V37H11.8016ZM15.7771 37V32.255H18.6241V32.9635H16.5766V34.1985H18.3966V34.9005H16.5766V36.2915H18.6241V37H15.7771ZM19.6745 37V32.255H22.5215V32.9635H20.474V34.1985H22.294V34.9005H20.474V36.2915H22.5215V37H19.6745ZM23.364 37V32.255H24.326L24.7875 33.763C24.8352 33.9147 24.8742 34.0533 24.9045 34.179C24.9348 34.3047 24.9543 34.3957 24.963 34.452C24.9717 34.3957 24.9912 34.3047 25.0215 34.179C25.0518 34.0533 25.0887 33.9147 25.132 33.763L25.574 32.255H26.536V37H25.7755V35.5245C25.7755 35.3078 25.782 35.0717 25.795 34.816C25.808 34.5603 25.8232 34.3047 25.8405 34.049C25.8578 33.7933 25.8773 33.5507 25.899 33.321C25.925 33.0913 25.9467 32.8898 25.964 32.7165L25.327 34.959H24.586L23.9295 32.7165C23.9512 32.8812 23.9728 33.0762 23.9945 33.3015C24.0162 33.5225 24.0357 33.7608 24.053 34.0165C24.0747 34.2678 24.092 34.5235 24.105 34.7835C24.118 35.0435 24.1245 35.2905 24.1245 35.5245V37H23.364ZM28.8475 37.065C28.3838 37.065 28.0198 36.9393 27.7555 36.688C27.4955 36.4323 27.3655 36.0857 27.3655 35.648V32.255H28.1845V35.6415C28.1845 35.8668 28.2408 36.0423 28.3535 36.168C28.4661 36.2937 28.6308 36.3565 28.8475 36.3565C29.0598 36.3565 29.2223 36.2937 29.335 36.168C29.452 36.0423 29.5105 35.8668 29.5105 35.6415V32.255H30.3295V35.648C30.3295 36.0857 30.1995 36.4323 29.9395 36.688C29.6795 36.9393 29.3155 37.065 28.8475 37.065ZM31.2629 37V32.255H32.2574L33.5769 36.09C33.5639 35.9513 33.5488 35.7888 33.5314 35.6025C33.5184 35.4118 33.5076 35.219 33.4989 35.024C33.4903 34.8247 33.4859 34.6513 33.4859 34.504V32.255H34.2269V37H33.2324L31.9259 33.165C31.9346 33.2907 31.9454 33.4423 31.9584 33.62C31.9714 33.7977 31.9823 33.9797 31.9909 34.166C31.9996 34.3523 32.0039 34.5235 32.0039 34.6795V37H31.2629Z" fill="white"/>
</svg>
